<svg width="340" height="43" viewBox="0 0 340 43" fill="none" xmlns="http://www.w3.org/2000/svg">
<path d="M8.312 2.8H12.4L4.56 42H0.472L8.312 2.8ZM22.8584 42.28C20.5064 42.28 18.2478 41.944 16.0824 41.272C13.9544 40.6 12.3118 39.7413 11.1544 38.696L13.0584 35.56C14.1784 36.5307 15.6531 37.3147 17.4824 37.912C19.3118 38.5093 21.2344 38.808 23.2504 38.808C26.0504 38.808 28.1971 38.36 29.6904 37.464C31.2211 36.5307 31.9864 35.224 31.9864 33.544C31.9864 32.6107 31.6691 31.864 31.0344 31.304C30.4371 30.744 29.6904 30.3147 28.7944 30.016C27.8984 29.7173 26.5918 29.3813 24.8744 29.008C22.8211 28.56 21.1598 28.112 19.8904 27.664C18.6211 27.216 17.5384 26.5067 16.6424 25.536C15.7464 24.5653 15.2984 23.2213 15.2984 21.504C15.2984 18.704 16.4558 16.4827 18.7704 14.84C21.0851 13.16 24.1838 12.32 28.0664 12.32C29.9704 12.32 31.8184 12.5813 33.6104 13.104C35.4398 13.5893 36.9144 14.2427 38.0344 15.064L36.3544 18.256C35.2344 17.4347 33.9091 16.8187 32.3784 16.408C30.8851 15.96 29.3358 15.736 27.7304 15.736C25.0424 15.736 22.9518 16.2213 21.4584 17.192C19.9651 18.1627 19.2184 19.4693 19.2184 21.112C19.2184 22.0827 19.5358 22.8667 20.1704 23.464C20.8051 24.0613 21.5891 24.5093 22.5224 24.808C23.4931 25.1067 24.7998 25.424 26.4424 25.76C28.4584 26.208 30.0824 26.656 31.3144 27.104C32.5838 27.5147 33.6664 28.2053 34.5624 29.176C35.4584 30.1467 35.9064 31.4533 35.9064 33.096C35.9064 35.9707 34.7118 38.2293 32.3224 39.872C29.9704 41.4773 26.8158 42.28 22.8584 42.28ZM48.0169 42.28C45.6649 42.28 43.4062 41.944 41.2409 41.272C39.1129 40.6 37.4702 39.7413 36.3129 38.696L38.2169 35.56C39.3369 36.5307 40.8115 37.3147 42.6409 37.912C44.4702 38.5093 46.3929 38.808 48.4089 38.808C51.2089 38.808 53.3555 38.36 54.8489 37.464C56.3795 36.5307 57.1449 35.224 57.1449 33.544C57.1449 32.6107 56.8275 31.864 56.1929 31.304C55.5955 30.744 54.8489 30.3147 53.9529 30.016C53.0569 29.7173 51.7502 29.3813 50.0329 29.008C47.9795 28.56 46.3182 28.112 45.0489 27.664C43.7795 27.216 42.6969 26.5067 41.8009 25.536C40.9049 24.5653 40.4569 23.2213 40.4569 21.504C40.4569 18.704 41.6142 16.4827 43.9289 14.84C46.2435 13.16 49.3422 12.32 53.2249 12.32C55.1289 12.32 56.9769 12.5813 58.7689 13.104C60.5982 13.5893 62.0729 14.2427 63.1929 15.064L61.5129 18.256C60.3929 17.4347 59.0675 16.8187 57.5369 16.408C56.0435 15.96 54.4942 15.736 52.8889 15.736C50.2009 15.736 48.1102 16.2213 46.6169 17.192C45.1235 18.1627 44.3769 19.4693 44.3769 21.112C44.3769 22.0827 44.6942 22.8667 45.3289 23.464C45.9635 24.0613 46.7475 24.5093 47.6809 24.808C48.6515 25.1067 49.9582 25.424 51.6009 25.76C53.6169 26.208 55.2409 26.656 56.4729 27.104C57.7422 27.5147 58.8249 28.2053 59.7209 29.176C60.6169 30.1467 61.0649 31.4533 61.0649 33.096C61.0649 35.9707 59.8702 38.2293 57.4809 39.872C55.1289 41.4773 51.9742 42.28 48.0169 42.28ZM97.0313 12.544L91.1513 42H87.3433L88.2953 37.296C85.5326 40.6187 81.7433 42.28 76.9273 42.28C73.642 42.28 71.066 41.44 69.1993 39.76C67.37 38.0427 66.4553 35.672 66.4553 32.648C66.4553 31.6027 66.5673 30.5013 66.7913 29.344L70.1513 12.544H74.1273L70.7673 29.344C70.5806 30.3893 70.4873 31.2667 70.4873 31.976C70.4873 34.1413 71.1033 35.8027 72.3353 36.96C73.6046 38.1173 75.49 38.696 77.9913 38.696C81.1273 38.696 83.722 37.8187 85.7753 36.064C87.8286 34.3093 89.21 31.752 89.9193 28.392L93.0553 12.544H97.0313ZM103.743 28.392C103.706 28.6533 103.687 29.0453 103.687 29.568C103.687 32.5547 104.527 34.832 106.207 36.4C107.924 37.968 110.463 38.752 113.823 38.752C115.764 38.752 117.575 38.4347 119.255 37.8C120.972 37.128 122.372 36.2133 123.455 35.056L125.247 37.912C123.866 39.2933 122.13 40.376 120.039 41.16C117.986 41.9067 115.802 42.28 113.487 42.28C109.231 42.28 105.871 41.16 103.407 38.92C100.98 36.68 99.767 33.6187 99.767 29.736C99.767 26.4507 100.458 23.4827 101.839 20.832C103.258 18.1813 105.199 16.1093 107.663 14.616C110.164 13.0853 112.964 12.32 116.063 12.32C119.983 12.32 123.1 13.44 125.415 15.68C127.73 17.8827 128.887 20.9253 128.887 24.808C128.887 25.8907 128.756 27.0853 128.495 28.392H103.743ZM115.951 15.68C113.002 15.68 110.482 16.5573 108.391 18.312C106.3 20.0667 104.882 22.4373 104.135 25.424H125.135C125.172 25.1627 125.191 24.808 125.191 24.36C125.191 21.5973 124.351 19.4693 122.671 17.976C120.991 16.4453 118.751 15.68 115.951 15.68ZM159.588 6.384H145.756L146.484 2.8H178.236L177.452 6.384H163.676L156.564 42H152.476L159.588 6.384ZM181.795 17.92C183.101 16.016 184.744 14.616 186.723 13.72C188.701 12.7867 191.091 12.32 193.891 12.32L193.163 16.184L192.043 16.128C188.869 16.128 186.256 17.0427 184.203 18.872C182.187 20.7013 180.824 23.4267 180.115 27.048L177.147 42H173.171L178.995 12.544H182.803L181.795 17.92ZM225.456 12.544L219.576 42H215.768L216.72 37.352C215.302 38.92 213.622 40.1333 211.68 40.992C209.739 41.8507 207.592 42.28 205.24 42.28C202.739 42.28 200.518 41.776 198.576 40.768C196.635 39.76 195.123 38.3227 194.04 36.456C192.958 34.552 192.416 32.3307 192.416 29.792C192.416 26.4693 193.126 23.4827 194.544 20.832C196 18.1813 197.998 16.1093 200.536 14.616C203.075 13.0853 205.912 12.32 209.048 12.32C211.848 12.32 214.2 12.88 216.104 14C218.008 15.0827 219.39 16.6507 220.248 18.704L221.48 12.544H225.456ZM206.08 38.752C208.507 38.752 210.691 38.1733 212.632 37.016C214.574 35.8213 216.086 34.1787 217.168 32.088C218.288 29.96 218.848 27.5893 218.848 24.976C218.848 22.1013 217.99 19.8613 216.272 18.256C214.592 16.6133 212.222 15.792 209.16 15.792C206.734 15.792 204.55 16.3893 202.608 17.584C200.667 18.7787 199.136 20.44 198.016 22.568C196.934 24.6587 196.392 27.0107 196.392 29.624C196.392 32.4987 197.232 34.7387 198.912 36.344C200.63 37.9493 203.019 38.752 206.08 38.752ZM241.737 42.28C238.975 42.28 236.567 41.776 234.513 40.768C232.46 39.7227 230.873 38.2667 229.753 36.4C228.671 34.496 228.129 32.2933 228.129 29.792C228.129 26.4693 228.857 23.4827 230.313 20.832C231.769 18.1813 233.804 16.1093 236.417 14.616C239.031 13.0853 241.98 12.32 245.265 12.32C247.991 12.32 250.324 12.824 252.265 13.832C254.244 14.8027 255.775 16.2587 256.857 18.2L253.497 20.16C251.817 17.248 248.961 15.792 244.929 15.792C242.503 15.792 240.3 16.3893 238.321 17.584C236.38 18.7787 234.849 20.4213 233.729 22.512C232.647 24.6027 232.105 26.9733 232.105 29.624C232.105 32.4987 232.945 34.7387 234.625 36.344C236.343 37.9493 238.769 38.752 241.905 38.752C243.809 38.752 245.564 38.3973 247.169 37.688C248.812 36.9413 250.156 35.8773 251.201 34.496L254.057 36.68C252.751 38.4347 250.996 39.816 248.793 40.824C246.628 41.7947 244.276 42.28 241.737 42.28ZM274.311 24.696L284.895 42H280.247L271.175 27.104L262.943 33.488L261.263 42H257.287L265.575 0.447998H269.551L263.951 28.392L284.223 12.544H289.879L274.311 24.696ZM290.571 28.392C290.533 28.6533 290.515 29.0453 290.515 29.568C290.515 32.5547 291.355 34.832 293.035 36.4C294.752 37.968 297.291 38.752 300.651 38.752C302.592 38.752 304.403 38.4347 306.083 37.8C307.8 37.128 309.2 36.2133 310.283 35.056L312.075 37.912C310.693 39.2933 308.957 40.376 306.867 41.16C304.813 41.9067 302.629 42.28 300.315 42.28C296.059 42.28 292.699 41.16 290.235 38.92C287.808 36.68 286.595 33.6187 286.595 29.736C286.595 26.4507 287.285 23.4827 288.667 20.832C290.085 18.1813 292.027 16.1093 294.491 14.616C296.992 13.0853 299.792 12.32 302.891 12.32C306.811 12.32 309.928 13.44 312.243 15.68C314.557 17.8827 315.715 20.9253 315.715 24.808C315.715 25.8907 315.584 27.0853 315.323 28.392H290.571ZM302.779 15.68C299.829 15.68 297.309 16.5573 295.219 18.312C293.128 20.0667 291.709 22.4373 290.963 25.424H311.963C312 25.1627 312.019 24.808 312.019 24.36C312.019 21.5973 311.179 19.4693 309.499 17.976C307.819 16.4453 305.579 15.68 302.779 15.68ZM327.056 17.92C328.362 16.016 330.005 14.616 331.984 13.72C333.962 12.7867 336.352 12.32 339.152 12.32L338.424 16.184L337.304 16.128C334.13 16.128 331.517 17.0427 329.464 18.872C327.448 20.7013 326.085 23.4267 325.376 27.048L322.408 42H318.432L324.256 12.544H328.064L327.056 17.92Z" fill="#14142B"/>
</svg>
