<svg width="199" height="25" viewBox="0 0 199 25" fill="none" xmlns="http://www.w3.org/2000/svg">
<path d="M5.144 1.6H8.344L3.864 24H0.664L5.144 1.6ZM14.2183 24.192C12.8103 24.192 11.4663 24.0107 10.1863 23.648C8.92758 23.2853 7.94625 22.816 7.24225 22.24L8.61825 19.808C9.27958 20.3413 10.1329 20.768 11.1783 21.088C12.2449 21.3867 13.3543 21.536 14.5063 21.536C15.9569 21.536 17.0556 21.3227 17.8023 20.896C18.5703 20.448 18.9543 19.8293 18.9543 19.04C18.9543 18.4 18.6449 17.9413 18.0263 17.664C17.4289 17.3867 16.4903 17.1093 15.2103 16.832C14.0156 16.576 13.0343 16.32 12.2663 16.064C11.5196 15.7867 10.8796 15.36 10.3463 14.784C9.81292 14.1867 9.54625 13.3867 9.54625 12.384C9.54625 11.2747 9.85558 10.304 10.4743 9.472C11.1143 8.64 12.0103 8 13.1623 7.552C14.3356 7.104 15.6903 6.88 17.2263 6.88C18.3569 6.88 19.4556 7.01867 20.5223 7.296C21.5889 7.57333 22.4636 7.94667 23.1463 8.416L21.9303 10.848C21.2689 10.4 20.5009 10.0693 19.6263 9.856C18.7516 9.62133 17.8556 9.504 16.9383 9.504C15.5516 9.504 14.4849 9.73867 13.7383 10.208C12.9916 10.656 12.6183 11.264 12.6183 12.032C12.6183 12.7147 12.9276 13.2053 13.5463 13.504C14.1649 13.7813 15.1249 14.0587 16.4263 14.336C17.5996 14.592 18.5596 14.848 19.3063 15.104C20.0529 15.36 20.6823 15.776 21.1943 16.352C21.7276 16.928 21.9943 17.7067 21.9943 18.688C21.9943 20.416 21.2796 21.7707 19.8503 22.752C18.4423 23.712 16.5649 24.192 14.2183 24.192ZM28.9695 24.192C27.5615 24.192 26.2175 24.0107 24.9375 23.648C23.6788 23.2853 22.6975 22.816 21.9935 22.24L23.3695 19.808C24.0308 20.3413 24.8842 20.768 25.9295 21.088C26.9962 21.3867 28.1055 21.536 29.2575 21.536C30.7082 21.536 31.8068 21.3227 32.5535 20.896C33.3215 20.448 33.7055 19.8293 33.7055 19.04C33.7055 18.4 33.3962 17.9413 32.7775 17.664C32.1802 17.3867 31.2415 17.1093 29.9615 16.832C28.7668 16.576 27.7855 16.32 27.0175 16.064C26.2708 15.7867 25.6308 15.36 25.0975 14.784C24.5642 14.1867 24.2975 13.3867 24.2975 12.384C24.2975 11.2747 24.6068 10.304 25.2255 9.472C25.8655 8.64 26.7615 8 27.9135 7.552C29.0868 7.104 30.4415 6.88 31.9775 6.88C33.1082 6.88 34.2068 7.01867 35.2735 7.296C36.3402 7.57333 37.2148 7.94667 37.8975 8.416L36.6815 10.848C36.0202 10.4 35.2522 10.0693 34.3775 9.856C33.5028 9.62133 32.6068 9.504 31.6895 9.504C30.3028 9.504 29.2362 9.73867 28.4895 10.208C27.7428 10.656 27.3695 11.264 27.3695 12.032C27.3695 12.7147 27.6788 13.2053 28.2975 13.504C28.9162 13.7813 29.8762 14.0587 31.1775 14.336C32.3508 14.592 33.3108 14.848 34.0575 15.104C34.8042 15.36 35.4335 15.776 35.9455 16.352C36.4788 16.928 36.7455 17.7067 36.7455 18.688C36.7455 20.416 36.0308 21.7707 34.6015 22.752C33.1935 23.712 31.3162 24.192 28.9695 24.192ZM57.5448 7.04L54.1848 24H51.2408L51.6568 21.824C50.8888 22.6133 49.9821 23.2107 48.9368 23.616C47.9128 24 46.7928 24.192 45.5767 24.192C43.6994 24.192 42.2168 23.6907 41.1287 22.688C40.0407 21.6853 39.4967 20.288 39.4967 18.496C39.4967 17.8987 39.5607 17.248 39.6888 16.544L41.5768 7.04H44.6488L42.7608 16.576C42.6541 17.152 42.6007 17.632 42.6007 18.016C42.6007 19.1253 42.9207 19.9787 43.5608 20.576C44.2221 21.152 45.1928 21.44 46.4728 21.44C48.0941 21.44 49.4381 20.9813 50.5048 20.064C51.5928 19.1467 52.3181 17.8027 52.6808 16.032L54.4728 7.04H57.5448ZM61.729 16.48V16.672C61.729 18.2507 62.177 19.456 63.073 20.288C63.969 21.0987 65.313 21.504 67.105 21.504C68.1503 21.504 69.1317 21.3333 70.049 20.992C70.9663 20.6293 71.7343 20.1493 72.353 19.552L73.665 21.76C72.833 22.528 71.8197 23.1253 70.625 23.552C69.4303 23.9787 68.1717 24.192 66.849 24.192C65.185 24.192 63.745 23.8933 62.529 23.296C61.313 22.6987 60.3743 21.8453 59.713 20.736C59.0517 19.6267 58.721 18.3253 58.721 16.832C58.721 14.9333 59.1263 13.2267 59.937 11.712C60.769 10.1973 61.9103 9.01333 63.361 8.16C64.833 7.30667 66.4757 6.88 68.289 6.88C70.593 6.88 72.4277 7.54133 73.793 8.864C75.1797 10.1653 75.873 11.9467 75.873 14.208C75.873 14.8907 75.7983 15.648 75.649 16.48H61.729ZM68.161 9.44C66.6463 9.44 65.345 9.86667 64.257 10.72C63.169 11.5733 62.433 12.7467 62.049 14.24H72.993C73.0783 12.7253 72.673 11.552 71.777 10.72C70.9023 9.86667 69.697 9.44 68.161 9.44ZM93.1173 4.384H85.4692L86.0132 1.6H104.541L103.965 4.384H96.3173L92.3813 24H89.2133L93.1173 4.384ZM107.268 9.568C108.015 8.62933 108.932 7.94667 110.02 7.52C111.108 7.09333 112.431 6.88 113.988 6.88L113.412 9.856C113.22 9.83467 112.954 9.824 112.612 9.824C109.092 9.824 106.959 11.7227 106.212 15.52L104.516 24H101.444L104.804 7.04H107.748L107.268 9.568ZM132.242 7.04L128.882 24H125.938L126.354 21.92C125.586 22.6453 124.69 23.2107 123.666 23.616C122.664 24 121.565 24.192 120.37 24.192C118.92 24.192 117.629 23.904 116.498 23.328C115.368 22.7307 114.482 21.8773 113.842 20.768C113.202 19.6587 112.882 18.3573 112.882 16.864C112.882 14.944 113.298 13.2267 114.13 11.712C114.962 10.1973 116.104 9.01333 117.554 8.16C119.026 7.30667 120.669 6.88 122.482 6.88C123.933 6.88 125.17 7.136 126.194 7.648C127.24 8.16 128.04 8.91733 128.594 9.92L129.17 7.04H132.242ZM121.042 21.504C122.301 21.504 123.432 21.2053 124.434 20.608C125.458 19.9893 126.248 19.136 126.802 18.048C127.378 16.96 127.666 15.7227 127.666 14.336C127.666 12.8213 127.229 11.648 126.354 10.816C125.48 9.984 124.232 9.568 122.61 9.568C121.352 9.568 120.221 9.87733 119.218 10.496C118.216 11.0933 117.426 11.936 116.85 13.024C116.274 14.112 115.986 15.3493 115.986 16.736C115.986 18.2293 116.424 19.4027 117.298 20.256C118.194 21.088 119.442 21.504 121.042 21.504ZM141.479 24.192C139.857 24.192 138.439 23.8933 137.223 23.296C136.007 22.6773 135.068 21.824 134.407 20.736C133.745 19.6267 133.415 18.336 133.415 16.864C133.415 14.9653 133.841 13.2587 134.695 11.744C135.548 10.2293 136.732 9.04533 138.247 8.192C139.761 7.31733 141.479 6.88 143.399 6.88C146.748 6.88 149.073 8.10667 150.375 10.56L147.783 12C146.887 10.3787 145.351 9.568 143.175 9.568C141.916 9.568 140.775 9.87733 139.751 10.496C138.748 11.0933 137.959 11.936 137.383 13.024C136.807 14.112 136.519 15.3493 136.519 16.736C136.519 18.2293 136.956 19.4027 137.831 20.256C138.727 21.088 139.985 21.504 141.607 21.504C142.631 21.504 143.58 21.3013 144.455 20.896C145.351 20.4907 146.087 19.8933 146.663 19.104L148.903 20.704C148.113 21.792 147.057 22.6453 145.735 23.264C144.412 23.8827 142.993 24.192 141.479 24.192ZM160.821 14.176L166.869 24H163.317L158.421 16L154.261 19.232L153.301 24H150.229L154.965 0.255999H158.037L155.029 15.36L165.557 7.04H169.877L160.821 14.176ZM170.613 16.48V16.672C170.613 18.2507 171.061 19.456 171.957 20.288C172.853 21.0987 174.197 21.504 175.989 21.504C177.034 21.504 178.015 21.3333 178.933 20.992C179.85 20.6293 180.618 20.1493 181.237 19.552L182.549 21.76C181.717 22.528 180.703 23.1253 179.509 23.552C178.314 23.9787 177.055 24.192 175.733 24.192C174.069 24.192 172.629 23.8933 171.413 23.296C170.197 22.6987 169.258 21.8453 168.597 20.736C167.935 19.6267 167.605 18.3253 167.605 16.832C167.605 14.9333 168.01 13.2267 168.821 11.712C169.653 10.1973 170.794 9.01333 172.245 8.16C173.717 7.30667 175.359 6.88 177.173 6.88C179.477 6.88 181.311 7.54133 182.677 8.864C184.063 10.1653 184.757 11.9467 184.757 14.208C184.757 14.8907 184.682 15.648 184.533 16.48H170.613ZM177.045 9.44C175.53 9.44 174.229 9.86667 173.141 10.72C172.053 11.5733 171.317 12.7467 170.933 14.24H181.877C181.962 12.7253 181.557 11.552 180.661 10.72C179.786 9.86667 178.581 9.44 177.045 9.44ZM191.743 9.568C192.49 8.62933 193.407 7.94667 194.495 7.52C195.583 7.09333 196.906 6.88 198.463 6.88L197.887 9.856C197.695 9.83467 197.429 9.824 197.087 9.824C193.567 9.824 191.434 11.7227 190.687 15.52L188.991 24H185.919L189.279 7.04H192.223L191.743 9.568Z" fill="#14142B"/>
</svg>
