<svg width="343" height="72" viewBox="0 0 343 72" fill="none" xmlns="http://www.w3.org/2000/svg">
<path d="M11.312 16.8H15.4L7.56 56H3.472L11.312 16.8ZM25.8584 56.28C23.5064 56.28 21.2478 55.944 19.0824 55.272C16.9544 54.6 15.3118 53.7413 14.1544 52.696L16.0584 49.56C17.1784 50.5307 18.6531 51.3147 20.4824 51.912C22.3118 52.5093 24.2344 52.808 26.2504 52.808C29.0504 52.808 31.1971 52.36 32.6904 51.464C34.2211 50.5307 34.9864 49.224 34.9864 47.544C34.9864 46.6107 34.6691 45.864 34.0344 45.304C33.4371 44.744 32.6904 44.3147 31.7944 44.016C30.8984 43.7173 29.5918 43.3813 27.8744 43.008C25.8211 42.56 24.1598 42.112 22.8904 41.664C21.6211 41.216 20.5384 40.5067 19.6424 39.536C18.7464 38.5653 18.2984 37.2213 18.2984 35.504C18.2984 32.704 19.4558 30.4827 21.7704 28.84C24.0851 27.16 27.1838 26.32 31.0664 26.32C32.9704 26.32 34.8184 26.5813 36.6104 27.104C38.4398 27.5893 39.9144 28.2427 41.0344 29.064L39.3544 32.256C38.2344 31.4347 36.9091 30.8187 35.3784 30.408C33.8851 29.96 32.3358 29.736 30.7304 29.736C28.0424 29.736 25.9518 30.2213 24.4584 31.192C22.9651 32.1627 22.2184 33.4693 22.2184 35.112C22.2184 36.0827 22.5358 36.8667 23.1704 37.464C23.8051 38.0613 24.5891 38.5093 25.5224 38.808C26.4931 39.1067 27.7998 39.424 29.4424 39.76C31.4584 40.208 33.0824 40.656 34.3144 41.104C35.5838 41.5147 36.6664 42.2053 37.5624 43.176C38.4584 44.1467 38.9064 45.4533 38.9064 47.096C38.9064 49.9707 37.7118 52.2293 35.3224 53.872C32.9704 55.4773 29.8158 56.28 25.8584 56.28ZM51.0169 56.28C48.6649 56.28 46.4062 55.944 44.2409 55.272C42.1129 54.6 40.4702 53.7413 39.3129 52.696L41.2169 49.56C42.3369 50.5307 43.8115 51.3147 45.6409 51.912C47.4702 52.5093 49.3929 52.808 51.4089 52.808C54.2089 52.808 56.3555 52.36 57.8489 51.464C59.3795 50.5307 60.1449 49.224 60.1449 47.544C60.1449 46.6107 59.8275 45.864 59.1929 45.304C58.5955 44.744 57.8489 44.3147 56.9529 44.016C56.0569 43.7173 54.7502 43.3813 53.0329 43.008C50.9795 42.56 49.3182 42.112 48.0489 41.664C46.7795 41.216 45.6969 40.5067 44.8009 39.536C43.9049 38.5653 43.4569 37.2213 43.4569 35.504C43.4569 32.704 44.6142 30.4827 46.9289 28.84C49.2435 27.16 52.3422 26.32 56.2249 26.32C58.1289 26.32 59.9769 26.5813 61.7689 27.104C63.5982 27.5893 65.0729 28.2427 66.1929 29.064L64.5129 32.256C63.3929 31.4347 62.0675 30.8187 60.5369 30.408C59.0435 29.96 57.4942 29.736 55.8889 29.736C53.2009 29.736 51.1102 30.2213 49.6169 31.192C48.1235 32.1627 47.3769 33.4693 47.3769 35.112C47.3769 36.0827 47.6942 36.8667 48.3289 37.464C48.9635 38.0613 49.7475 38.5093 50.6809 38.808C51.6515 39.1067 52.9582 39.424 54.6009 39.76C56.6169 40.208 58.2409 40.656 59.4729 41.104C60.7422 41.5147 61.8249 42.2053 62.7209 43.176C63.6169 44.1467 64.0649 45.4533 64.0649 47.096C64.0649 49.9707 62.8702 52.2293 60.4809 53.872C58.1289 55.4773 54.9742 56.28 51.0169 56.28ZM100.031 26.544L94.1513 56H90.3433L91.2953 51.296C88.5326 54.6187 84.7433 56.28 79.9273 56.28C76.642 56.28 74.066 55.44 72.1993 53.76C70.37 52.0427 69.4553 49.672 69.4553 46.648C69.4553 45.6027 69.5673 44.5013 69.7913 43.344L73.1513 26.544H77.1273L73.7673 43.344C73.5806 44.3893 73.4873 45.2667 73.4873 45.976C73.4873 48.1413 74.1033 49.8027 75.3353 50.96C76.6046 52.1173 78.49 52.696 80.9913 52.696C84.1273 52.696 86.722 51.8187 88.7753 50.064C90.8286 48.3093 92.21 45.752 92.9193 42.392L96.0553 26.544H100.031ZM106.743 42.392C106.706 42.6533 106.687 43.0453 106.687 43.568C106.687 46.5547 107.527 48.832 109.207 50.4C110.924 51.968 113.463 52.752 116.823 52.752C118.764 52.752 120.575 52.4347 122.255 51.8C123.972 51.128 125.372 50.2133 126.455 49.056L128.247 51.912C126.866 53.2933 125.13 54.376 123.039 55.16C120.986 55.9067 118.802 56.28 116.487 56.28C112.231 56.28 108.871 55.16 106.407 52.92C103.98 50.68 102.767 47.6187 102.767 43.736C102.767 40.4507 103.458 37.4827 104.839 34.832C106.258 32.1813 108.199 30.1093 110.663 28.616C113.164 27.0853 115.964 26.32 119.063 26.32C122.983 26.32 126.1 27.44 128.415 29.68C130.73 31.8827 131.887 34.9253 131.887 38.808C131.887 39.8907 131.756 41.0853 131.495 42.392H106.743ZM118.951 29.68C116.002 29.68 113.482 30.5573 111.391 32.312C109.3 34.0667 107.882 36.4373 107.135 39.424H128.135C128.172 39.1627 128.191 38.808 128.191 38.36C128.191 35.5973 127.351 33.4693 125.671 31.976C123.991 30.4453 121.751 29.68 118.951 29.68ZM162.588 20.384H148.756L149.484 16.8H181.236L180.452 20.384H166.676L159.564 56H155.476L162.588 20.384ZM184.795 31.92C186.101 30.016 187.744 28.616 189.723 27.72C191.701 26.7867 194.091 26.32 196.891 26.32L196.163 30.184L195.043 30.128C191.869 30.128 189.256 31.0427 187.203 32.872C185.187 34.7013 183.824 37.4267 183.115 41.048L180.147 56H176.171L181.995 26.544H185.803L184.795 31.92ZM228.456 26.544L222.576 56H218.768L219.72 51.352C218.302 52.92 216.622 54.1333 214.68 54.992C212.739 55.8507 210.592 56.28 208.24 56.28C205.739 56.28 203.518 55.776 201.576 54.768C199.635 53.76 198.123 52.3227 197.04 50.456C195.958 48.552 195.416 46.3307 195.416 43.792C195.416 40.4693 196.126 37.4827 197.544 34.832C199 32.1813 200.998 30.1093 203.536 28.616C206.075 27.0853 208.912 26.32 212.048 26.32C214.848 26.32 217.2 26.88 219.104 28C221.008 29.0827 222.39 30.6507 223.248 32.704L224.48 26.544H228.456ZM209.08 52.752C211.507 52.752 213.691 52.1733 215.632 51.016C217.574 49.8213 219.086 48.1787 220.168 46.088C221.288 43.96 221.848 41.5893 221.848 38.976C221.848 36.1013 220.99 33.8613 219.272 32.256C217.592 30.6133 215.222 29.792 212.16 29.792C209.734 29.792 207.55 30.3893 205.608 31.584C203.667 32.7787 202.136 34.44 201.016 36.568C199.934 38.6587 199.392 41.0107 199.392 43.624C199.392 46.4987 200.232 48.7387 201.912 50.344C203.63 51.9493 206.019 52.752 209.08 52.752ZM244.737 56.28C241.975 56.28 239.567 55.776 237.513 54.768C235.46 53.7227 233.873 52.2667 232.753 50.4C231.671 48.496 231.129 46.2933 231.129 43.792C231.129 40.4693 231.857 37.4827 233.313 34.832C234.769 32.1813 236.804 30.1093 239.417 28.616C242.031 27.0853 244.98 26.32 248.265 26.32C250.991 26.32 253.324 26.824 255.265 27.832C257.244 28.8027 258.775 30.2587 259.857 32.2L256.497 34.16C254.817 31.248 251.961 29.792 247.929 29.792C245.503 29.792 243.3 30.3893 241.321 31.584C239.38 32.7787 237.849 34.4213 236.729 36.512C235.647 38.6027 235.105 40.9733 235.105 43.624C235.105 46.4987 235.945 48.7387 237.625 50.344C239.343 51.9493 241.769 52.752 244.905 52.752C246.809 52.752 248.564 52.3973 250.169 51.688C251.812 50.9413 253.156 49.8773 254.201 48.496L257.057 50.68C255.751 52.4347 253.996 53.816 251.793 54.824C249.628 55.7947 247.276 56.28 244.737 56.28ZM277.311 38.696L287.895 56H283.247L274.175 41.104L265.943 47.488L264.263 56H260.287L268.575 14.448H272.551L266.951 42.392L287.223 26.544H292.879L277.311 38.696ZM293.571 42.392C293.533 42.6533 293.515 43.0453 293.515 43.568C293.515 46.5547 294.355 48.832 296.035 50.4C297.752 51.968 300.291 52.752 303.651 52.752C305.592 52.752 307.403 52.4347 309.083 51.8C310.8 51.128 312.2 50.2133 313.283 49.056L315.075 51.912C313.693 53.2933 311.957 54.376 309.867 55.16C307.813 55.9067 305.629 56.28 303.315 56.28C299.059 56.28 295.699 55.16 293.235 52.92C290.808 50.68 289.595 47.6187 289.595 43.736C289.595 40.4507 290.285 37.4827 291.667 34.832C293.085 32.1813 295.027 30.1093 297.491 28.616C299.992 27.0853 302.792 26.32 305.891 26.32C309.811 26.32 312.928 27.44 315.243 29.68C317.557 31.8827 318.715 34.9253 318.715 38.808C318.715 39.8907 318.584 41.0853 318.323 42.392H293.571ZM305.779 29.68C302.829 29.68 300.309 30.5573 298.219 32.312C296.128 34.0667 294.709 36.4373 293.963 39.424H314.963C315 39.1627 315.019 38.808 315.019 38.36C315.019 35.5973 314.179 33.4693 312.499 31.976C310.819 30.4453 308.579 29.68 305.779 29.68ZM330.056 31.92C331.362 30.016 333.005 28.616 334.984 27.72C336.962 26.7867 339.352 26.32 342.152 26.32L341.424 30.184L340.304 30.128C337.13 30.128 334.517 31.0427 332.464 32.872C330.448 34.7013 329.085 37.4267 328.376 41.048L325.408 56H321.432L327.256 26.544H331.064L330.056 31.92Z" fill="#14142B"/>
</svg>
