<svg width="200" height="40" viewBox="0 0 200 40" fill="none" xmlns="http://www.w3.org/2000/svg">
<path d="M6.144 8.6H9.344L4.864 31H1.664L6.144 8.6ZM15.2183 31.192C13.8103 31.192 12.4663 31.0107 11.1863 30.648C9.92758 30.2853 8.94625 29.816 8.24225 29.24L9.61825 26.808C10.2796 27.3413 11.1329 27.768 12.1783 28.088C13.2449 28.3867 14.3543 28.536 15.5063 28.536C16.9569 28.536 18.0556 28.3227 18.8023 27.896C19.5703 27.448 19.9543 26.8293 19.9543 26.04C19.9543 25.4 19.6449 24.9413 19.0263 24.664C18.4289 24.3867 17.4903 24.1093 16.2103 23.832C15.0156 23.576 14.0343 23.32 13.2663 23.064C12.5196 22.7867 11.8796 22.36 11.3463 21.784C10.8129 21.1867 10.5463 20.3867 10.5463 19.384C10.5463 18.2747 10.8556 17.304 11.4743 16.472C12.1143 15.64 13.0103 15 14.1623 14.552C15.3356 14.104 16.6903 13.88 18.2263 13.88C19.3569 13.88 20.4556 14.0187 21.5223 14.296C22.5889 14.5733 23.4636 14.9467 24.1463 15.416L22.9303 17.848C22.2689 17.4 21.5009 17.0693 20.6263 16.856C19.7516 16.6213 18.8556 16.504 17.9383 16.504C16.5516 16.504 15.4849 16.7387 14.7383 17.208C13.9916 17.656 13.6183 18.264 13.6183 19.032C13.6183 19.7147 13.9276 20.2053 14.5463 20.504C15.1649 20.7813 16.1249 21.0587 17.4263 21.336C18.5996 21.592 19.5596 21.848 20.3063 22.104C21.0529 22.36 21.6823 22.776 22.1943 23.352C22.7276 23.928 22.9943 24.7067 22.9943 25.688C22.9943 27.416 22.2796 28.7707 20.8503 29.752C19.4423 30.712 17.5649 31.192 15.2183 31.192ZM29.9695 31.192C28.5615 31.192 27.2175 31.0107 25.9375 30.648C24.6788 30.2853 23.6975 29.816 22.9935 29.24L24.3695 26.808C25.0308 27.3413 25.8842 27.768 26.9295 28.088C27.9962 28.3867 29.1055 28.536 30.2575 28.536C31.7082 28.536 32.8068 28.3227 33.5535 27.896C34.3215 27.448 34.7055 26.8293 34.7055 26.04C34.7055 25.4 34.3962 24.9413 33.7775 24.664C33.1802 24.3867 32.2415 24.1093 30.9615 23.832C29.7668 23.576 28.7855 23.32 28.0175 23.064C27.2708 22.7867 26.6308 22.36 26.0975 21.784C25.5642 21.1867 25.2975 20.3867 25.2975 19.384C25.2975 18.2747 25.6068 17.304 26.2255 16.472C26.8655 15.64 27.7615 15 28.9135 14.552C30.0868 14.104 31.4415 13.88 32.9775 13.88C34.1082 13.88 35.2068 14.0187 36.2735 14.296C37.3402 14.5733 38.2148 14.9467 38.8975 15.416L37.6815 17.848C37.0202 17.4 36.2522 17.0693 35.3775 16.856C34.5028 16.6213 33.6068 16.504 32.6895 16.504C31.3028 16.504 30.2362 16.7387 29.4895 17.208C28.7428 17.656 28.3695 18.264 28.3695 19.032C28.3695 19.7147 28.6788 20.2053 29.2975 20.504C29.9162 20.7813 30.8762 21.0587 32.1775 21.336C33.3508 21.592 34.3108 21.848 35.0575 22.104C35.8042 22.36 36.4335 22.776 36.9455 23.352C37.4788 23.928 37.7455 24.7067 37.7455 25.688C37.7455 27.416 37.0308 28.7707 35.6015 29.752C34.1935 30.712 32.3162 31.192 29.9695 31.192ZM58.5448 14.04L55.1848 31H52.2408L52.6568 28.824C51.8888 29.6133 50.9821 30.2107 49.9368 30.616C48.9128 31 47.7928 31.192 46.5767 31.192C44.6994 31.192 43.2168 30.6907 42.1287 29.688C41.0407 28.6853 40.4967 27.288 40.4967 25.496C40.4967 24.8987 40.5607 24.248 40.6888 23.544L42.5768 14.04H45.6488L43.7608 23.576C43.6541 24.152 43.6007 24.632 43.6007 25.016C43.6007 26.1253 43.9207 26.9787 44.5608 27.576C45.2221 28.152 46.1928 28.44 47.4728 28.44C49.0941 28.44 50.4381 27.9813 51.5048 27.064C52.5928 26.1467 53.3181 24.8027 53.6808 23.032L55.4728 14.04H58.5448ZM62.729 23.48V23.672C62.729 25.2507 63.177 26.456 64.073 27.288C64.969 28.0987 66.313 28.504 68.105 28.504C69.1503 28.504 70.1317 28.3333 71.049 27.992C71.9663 27.6293 72.7343 27.1493 73.353 26.552L74.665 28.76C73.833 29.528 72.8197 30.1253 71.625 30.552C70.4303 30.9787 69.1717 31.192 67.849 31.192C66.185 31.192 64.745 30.8933 63.529 30.296C62.313 29.6987 61.3743 28.8453 60.713 27.736C60.0517 26.6267 59.721 25.3253 59.721 23.832C59.721 21.9333 60.1263 20.2267 60.937 18.712C61.769 17.1973 62.9103 16.0133 64.361 15.16C65.833 14.3067 67.4757 13.88 69.289 13.88C71.593 13.88 73.4277 14.5413 74.793 15.864C76.1797 17.1653 76.873 18.9467 76.873 21.208C76.873 21.8907 76.7983 22.648 76.649 23.48H62.729ZM69.161 16.44C67.6463 16.44 66.345 16.8667 65.257 17.72C64.169 18.5733 63.433 19.7467 63.049 21.24H73.993C74.0783 19.7253 73.673 18.552 72.777 17.72C71.9023 16.8667 70.697 16.44 69.161 16.44ZM94.1173 11.384H86.4692L87.0132 8.6H105.541L104.965 11.384H97.3173L93.3813 31H90.2133L94.1173 11.384ZM108.268 16.568C109.015 15.6293 109.932 14.9467 111.02 14.52C112.108 14.0933 113.431 13.88 114.988 13.88L114.412 16.856C114.22 16.8347 113.954 16.824 113.612 16.824C110.092 16.824 107.959 18.7227 107.212 22.52L105.516 31H102.444L105.804 14.04H108.748L108.268 16.568ZM133.242 14.04L129.882 31H126.938L127.354 28.92C126.586 29.6453 125.69 30.2107 124.666 30.616C123.664 31 122.565 31.192 121.37 31.192C119.92 31.192 118.629 30.904 117.498 30.328C116.368 29.7307 115.482 28.8773 114.842 27.768C114.202 26.6587 113.882 25.3573 113.882 23.864C113.882 21.944 114.298 20.2267 115.13 18.712C115.962 17.1973 117.104 16.0133 118.554 15.16C120.026 14.3067 121.669 13.88 123.482 13.88C124.933 13.88 126.17 14.136 127.194 14.648C128.24 15.16 129.04 15.9173 129.594 16.92L130.17 14.04H133.242ZM122.042 28.504C123.301 28.504 124.432 28.2053 125.434 27.608C126.458 26.9893 127.248 26.136 127.802 25.048C128.378 23.96 128.666 22.7227 128.666 21.336C128.666 19.8213 128.229 18.648 127.354 17.816C126.48 16.984 125.232 16.568 123.61 16.568C122.352 16.568 121.221 16.8773 120.218 17.496C119.216 18.0933 118.426 18.936 117.85 20.024C117.274 21.112 116.986 22.3493 116.986 23.736C116.986 25.2293 117.424 26.4027 118.298 27.256C119.194 28.088 120.442 28.504 122.042 28.504ZM142.479 31.192C140.857 31.192 139.439 30.8933 138.223 30.296C137.007 29.6773 136.068 28.824 135.407 27.736C134.745 26.6267 134.415 25.336 134.415 23.864C134.415 21.9653 134.841 20.2587 135.695 18.744C136.548 17.2293 137.732 16.0453 139.247 15.192C140.761 14.3173 142.479 13.88 144.399 13.88C147.748 13.88 150.073 15.1067 151.375 17.56L148.783 19C147.887 17.3787 146.351 16.568 144.175 16.568C142.916 16.568 141.775 16.8773 140.751 17.496C139.748 18.0933 138.959 18.936 138.383 20.024C137.807 21.112 137.519 22.3493 137.519 23.736C137.519 25.2293 137.956 26.4027 138.831 27.256C139.727 28.088 140.985 28.504 142.607 28.504C143.631 28.504 144.58 28.3013 145.455 27.896C146.351 27.4907 147.087 26.8933 147.663 26.104L149.903 27.704C149.113 28.792 148.057 29.6453 146.735 30.264C145.412 30.8827 143.993 31.192 142.479 31.192ZM161.821 21.176L167.869 31H164.317L159.421 23L155.261 26.232L154.301 31H151.229L155.965 7.256H159.037L156.029 22.36L166.557 14.04H170.877L161.821 21.176ZM171.613 23.48V23.672C171.613 25.2507 172.061 26.456 172.957 27.288C173.853 28.0987 175.197 28.504 176.989 28.504C178.034 28.504 179.015 28.3333 179.933 27.992C180.85 27.6293 181.618 27.1493 182.237 26.552L183.549 28.76C182.717 29.528 181.703 30.1253 180.509 30.552C179.314 30.9787 178.055 31.192 176.733 31.192C175.069 31.192 173.629 30.8933 172.413 30.296C171.197 29.6987 170.258 28.8453 169.597 27.736C168.935 26.6267 168.605 25.3253 168.605 23.832C168.605 21.9333 169.01 20.2267 169.821 18.712C170.653 17.1973 171.794 16.0133 173.245 15.16C174.717 14.3067 176.359 13.88 178.173 13.88C180.477 13.88 182.311 14.5413 183.677 15.864C185.063 17.1653 185.757 18.9467 185.757 21.208C185.757 21.8907 185.682 22.648 185.533 23.48H171.613ZM178.045 16.44C176.53 16.44 175.229 16.8667 174.141 17.72C173.053 18.5733 172.317 19.7467 171.933 21.24H182.877C182.962 19.7253 182.557 18.552 181.661 17.72C180.786 16.8667 179.581 16.44 178.045 16.44ZM192.743 16.568C193.49 15.6293 194.407 14.9467 195.495 14.52C196.583 14.0933 197.906 13.88 199.463 13.88L198.887 16.856C198.695 16.8347 198.429 16.824 198.087 16.824C194.567 16.824 192.434 18.7227 191.687 22.52L189.991 31H186.919L190.279 14.04H193.223L192.743 16.568Z" fill="#14142B"/>
</svg>
