<svg width="16" height="16" viewBox="0 0 16 16" fill="none" xmlns="http://www.w3.org/2000/svg">
<path d="M14.2934 7.36665L8.1667 13.4933C7.41613 14.2439 6.39815 14.6655 5.3367 14.6655C4.27524 14.6655 3.25726 14.2439 2.5067 13.4933C1.75613 12.7428 1.33447 11.7248 1.33447 10.6633C1.33447 9.60186 1.75613 8.58388 2.5067 7.83332L8.63336 1.70665C9.13374 1.20628 9.81239 0.925171 10.52 0.925171C11.2277 0.925171 11.9063 1.20628 12.4067 1.70665C12.9071 2.20703 13.1882 2.88568 13.1882 3.59332C13.1882 4.30096 12.9071 4.97961 12.4067 5.47999L6.27336 11.6067C6.02318 11.8568 5.68385 11.9974 5.33003 11.9974C4.97621 11.9974 4.63688 11.8568 4.3867 11.6067C4.13651 11.3565 3.99596 11.0171 3.99596 10.6633C3.99596 10.3095 4.13651 9.97017 4.3867 9.71999L10.0467 4.06665" stroke="#14142B" stroke-width="1.6" stroke-linecap="round" stroke-linejoin="round"/>
</svg>
