<svg width="16" height="16" viewBox="0 0 16 16" fill="none" xmlns="http://www.w3.org/2000/svg">
<path d="M7.5 3V3.5H8H11.634C11.9294 3.5 12.2152 3.60486 12.4413 3.79592L14.5111 5.54571C14.6497 5.66306 14.7612 5.80922 14.8376 5.97403C14.9141 6.13884 14.9537 6.31833 14.9537 6.5C14.9537 6.68167 14.9141 6.86116 14.8376 7.02597C14.7612 7.19078 14.6497 7.33694 14.5111 7.45429L12.4412 9.20417L12.4411 9.20429C12.2154 9.39516 11.9295 9.49993 11.634 9.5C11.634 9.5 11.6339 9.5 11.6339 9.5H8H7.5V10V15.25C7.5 15.3163 7.47366 15.3799 7.42678 15.4268C7.37989 15.4737 7.3163 15.5 7.25 15.5C7.1837 15.5 7.12011 15.4737 7.07322 15.4268C7.02634 15.3799 7 15.3163 7 15.25V10V9.5H6.5H2.25C1.91848 9.5 1.60054 9.3683 1.36612 9.13388C1.1317 8.89946 1 8.58152 1 8.25V4.75C1 4.06014 1.56014 3.5 2.25 3.5H6.5H7V3V0.75C7 0.683696 7.02634 0.620107 7.07322 0.573223C7.12011 0.526339 7.1837 0.5 7.25 0.5C7.3163 0.5 7.37989 0.526339 7.42678 0.573223C7.47366 0.620108 7.5 0.683697 7.5 0.75V3ZM11.634 9.00001L11.637 8.99999C11.8136 8.99894 11.9841 8.9356 12.1186 8.82116C12.1191 8.82077 12.1195 8.82038 12.12 8.81999L14.1878 7.07183L14.1878 7.07184L14.19 7.07C14.2723 6.99959 14.3384 6.91218 14.3837 6.81378C14.429 6.71539 14.4525 6.60834 14.4525 6.5C14.4525 6.39166 14.429 6.28461 14.3837 6.18622C14.3384 6.08782 14.2723 6.00041 14.19 5.93L14.1878 5.92817L12.12 4.18001C12.1195 4.17963 12.1191 4.17926 12.1187 4.17888C11.9842 4.06442 11.8136 4.00106 11.637 4.00001V4H11.634H2.25C2.05109 4 1.86032 4.07902 1.71967 4.21967C1.57902 4.36032 1.5 4.55109 1.5 4.75V8.25C1.5 8.66414 1.83586 9 2.25 9H7.25L11.634 9.00001Z" fill="black" stroke="#6E7191"/>
</svg>
