<svg width="67" height="32" viewBox="0 0 67 32" fill="none" xmlns="http://www.w3.org/2000/svg">
<path d="M2 12H3.33333H14" stroke="#FF3B30" stroke-width="1.6" stroke-linecap="round" stroke-linejoin="round"/>
<path d="M5.33325 12.0002V10.6668C5.33325 10.3132 5.47373 9.97407 5.72378 9.72402C5.97383 9.47397 6.31296 9.3335 6.66659 9.3335H9.33325C9.68687 9.3335 10.026 9.47397 10.2761 9.72402C10.5261 9.97407 10.6666 10.3132 10.6666 10.6668V12.0002M12.6666 12.0002V21.3335C12.6666 21.6871 12.5261 22.0263 12.2761 22.2763C12.026 22.5264 11.6869 22.6668 11.3333 22.6668H4.66659C4.31296 22.6668 3.97382 22.5264 3.72378 22.2763C3.47373 22.0263 3.33325 21.6871 3.33325 21.3335V12.0002H12.6666Z" stroke="#FF3B30" stroke-width="1.6" stroke-linecap="round" stroke-linejoin="round"/>
<path d="M6.66675 15.3335V19.3335" stroke="#FF3B30" stroke-width="1.6" stroke-linecap="round" stroke-linejoin="round"/>
<path d="M9.33325 15.3335V19.3335" stroke="#FF3B30" stroke-width="1.6" stroke-linecap="round" stroke-linejoin="round"/>
<path d="M28.088 10.968V22.056H29.672V10.968H28.088ZM23.732 11.748C22.064 11.748 20.828 13.26 20.828 15.684C20.828 18.12 22.064 19.644 23.732 19.644C25.4 19.644 26.636 18.12 26.636 15.684C26.636 13.26 25.4 11.748 23.732 11.748ZM23.732 13.176C24.548 13.176 25.112 14.052 25.112 15.684C25.112 17.328 24.548 18.204 23.732 18.204C22.916 18.204 22.352 17.328 22.352 15.684C22.352 14.052 22.916 13.176 23.732 13.176ZM41.1911 14.952C38.6831 14.592 37.4111 13.14 37.4111 11.832V11.304H35.7191V11.832C35.7191 13.152 34.4471 14.592 31.9391 14.952L32.5391 16.236C34.4711 15.936 35.8631 15.024 36.5711 13.812C37.2671 15.012 38.6591 15.936 40.5791 16.236L41.1911 14.952ZM41.5631 17.076H31.5551V18.336H33.8471V22.068H35.4191V18.336H37.7351V22.068H39.3191V18.336H41.5631V17.076ZM51.8649 15.864C50.1369 15.324 49.3929 14.016 49.3929 12.696V11.532H47.7849V12.552C47.7849 13.98 47.0169 15.408 45.1929 15.984L45.9849 17.232C47.2449 16.824 48.0969 15.996 48.5889 14.964C49.0569 15.948 49.8849 16.716 51.0969 17.112L51.8649 15.864ZM46.6329 19.392H52.4289V22.044H54.0129V18.132H46.6329V19.392ZM55.4769 13.668H54.0129V10.98H52.4289V17.652H54.0129V14.964H55.4769V13.668ZM59.8559 13.368H61.4639V12.084H56.5439V13.368H58.3199V13.908C58.3199 15.804 57.7439 17.784 56.1359 18.804L57.0719 19.968C58.0679 19.344 58.7159 18.264 59.0999 17.004C59.4599 18.168 60.0959 19.116 61.0679 19.704L61.9919 18.552C60.3959 17.616 59.8559 15.756 59.8559 13.908V13.368ZM62.0999 14.748H60.6959V16.032H62.0999V21.528H63.5759V11.16H62.0999V14.748ZM64.3319 10.968V22.02H65.8319V10.968H64.3319Z" fill="#FF3B30"/>
</svg>
