<svg width="100" height="40" viewBox="0 0 100 40" fill="none" xmlns="http://www.w3.org/2000/svg">
<path d="M0 20C0 8.95431 8.95431 0 20 0H80C91.0457 0 100 8.95431 100 20C100 31.0457 91.0457 40 80 40H20C8.9543 40 0 31.0457 0 20Z" fill="#CCD4FF"/>
<g clip-path="url(#clip0)">
<path d="M30.5 17.3335V26.0002H18.5V17.3335" stroke="#0025E7" stroke-width="1.6" stroke-linecap="round" stroke-linejoin="round"/>
<path d="M31.8332 14H17.1665V17.3333H31.8332V14Z" stroke="#0025E7" stroke-width="1.6" stroke-linecap="round" stroke-linejoin="round"/>
<path d="M23.1665 20H25.8332" stroke="#0025E7" stroke-width="1.6" stroke-linecap="round" stroke-linejoin="round"/>
</g>
<path d="M43.3902 19.276C42.0822 19.54 40.9182 19.612 38.8662 19.624V16.768H42.4302V15.76H37.6302V20.632H38.5062C40.8342 20.632 42.1062 20.56 43.5102 20.26L43.3902 19.276ZM39.9942 22.732H45.7302V21.748H38.7582V25.792H45.9222V24.796H39.9942V22.732ZM45.6462 17.56V15.076H44.4102V21.172H45.6462V18.58H47.1822V17.56H45.6462ZM57.1533 15.076H55.9173V23.236H57.1533V15.076ZM54.9213 16.348H52.2693V15.076H51.0333V16.348H48.3693V17.332H54.9213V16.348ZM50.1453 19.864C50.1453 19.18 50.7573 18.772 51.6453 18.772C52.5333 18.772 53.1453 19.18 53.1453 19.864C53.1453 20.548 52.5333 20.956 51.6453 20.956C50.7573 20.956 50.1453 20.548 50.1453 19.864ZM54.3213 19.864C54.3213 18.64 53.2293 17.812 51.6453 17.812C50.0613 17.812 48.9693 18.64 48.9693 19.864C48.9693 21.1 50.0613 21.916 51.6453 21.916C53.2293 21.916 54.3213 21.1 54.3213 19.864ZM51.3213 24.712V22.576H50.0733V25.72H57.4653V24.712H51.3213ZM69.6277 15.076V25.948H70.8757V15.076H69.6277ZM65.1037 15.88C63.4957 15.88 62.3197 17.368 62.3197 19.696C62.3197 22.048 63.4957 23.524 65.1037 23.524C66.7237 23.524 67.8997 22.048 67.8997 19.696C67.8997 17.368 66.7237 15.88 65.1037 15.88ZM65.1037 16.996C66.0517 16.996 66.7117 18.016 66.7117 19.696C66.7117 21.4 66.0517 22.42 65.1037 22.42C64.1677 22.42 63.5077 21.4 63.5077 19.696C63.5077 18.016 64.1677 16.996 65.1037 16.996ZM82.3587 19.132C80.1867 18.808 78.5547 17.428 78.5547 16.012V15.448H77.2467V16.012C77.2467 17.452 75.6387 18.808 73.4547 19.132L73.9347 20.14C75.7347 19.84 77.2107 18.916 77.9067 17.644C78.6147 18.904 80.0787 19.84 81.8787 20.14L82.3587 19.132ZM82.8147 21.184H72.9867V22.192H75.3867V25.996H76.6227V22.192H79.2147V25.996H80.4387V22.192H82.8147V21.184Z" fill="#0025E7"/>
<defs>
<clipPath id="clip0">
<rect width="16" height="16" fill="white" transform="translate(16.5 12)"/>
</clipPath>
</defs>
</svg>
