<svg width="100" height="40" viewBox="0 0 100 40" fill="none" xmlns="http://www.w3.org/2000/svg">
<path d="M0 20C0 8.95431 8.95431 0 20 0H80C91.0457 0 100 8.95431 100 20C100 31.0457 91.0457 40 80 40H20C8.9543 40 0 31.0457 0 20Z" fill="#C7EBFF"/>
<g clip-path="url(#clip0)">
<path d="M24.5002 26.6668C28.1821 26.6668 31.1668 23.6821 31.1668 20.0002C31.1668 16.3183 28.1821 13.3335 24.5002 13.3335C20.8183 13.3335 17.8335 16.3183 17.8335 20.0002C17.8335 23.6821 20.8183 26.6668 24.5002 26.6668Z" stroke="#007AFF" stroke-width="1.6" stroke-linecap="round" stroke-linejoin="round"/>
<path d="M24.5 17.3335V20.0002" stroke="#007AFF" stroke-width="2" stroke-linecap="round" stroke-linejoin="round"/>
<path d="M24.5 22.6665H24.5067" stroke="#007AFF" stroke-width="2" stroke-linecap="round" stroke-linejoin="round"/>
</g>
<path d="M38.5062 17.908C38.5062 17.02 39.2022 16.432 40.1622 16.432C41.0982 16.432 41.7942 17.02 41.7942 17.908C41.7942 18.796 41.0982 19.384 40.1622 19.384C39.2022 19.384 38.5062 18.796 38.5062 17.908ZM44.9142 17.26V18.52H42.8982C42.9462 18.328 42.9702 18.112 42.9702 17.908C42.9702 17.68 42.9462 17.464 42.8862 17.26H44.9142ZM44.9142 19.492V20.584H46.1622V15.076H44.9142V16.288H42.3582C41.8542 15.736 41.0742 15.412 40.1622 15.412C38.5302 15.412 37.3302 16.444 37.3302 17.908C37.3302 19.36 38.5302 20.404 40.1622 20.404C41.0862 20.404 41.8902 20.056 42.3822 19.492H44.9142ZM40.3422 24.82V23.86H46.1622V21.1H39.1062V22.06H44.9382V22.948H39.1182V25.792H46.5222V24.82H40.3422ZM57.1533 15.1H55.9053V23.08H57.1533V15.1ZM54.8013 20.26C53.2773 20.536 51.9693 20.596 50.0013 20.608V19.12H53.7093V15.832H48.7533V16.828H52.4973V18.184H48.7773V21.616H49.6893C51.8733 21.616 53.2893 21.556 54.9333 21.256L54.8013 20.26ZM51.2493 24.712V22.444H50.0133V25.72H57.4413V24.712H51.2493ZM69.6277 15.076V25.948H70.8757V15.076H69.6277ZM65.1037 15.88C63.4957 15.88 62.3197 17.368 62.3197 19.696C62.3197 22.048 63.4957 23.524 65.1037 23.524C66.7237 23.524 67.8997 22.048 67.8997 19.696C67.8997 17.368 66.7237 15.88 65.1037 15.88ZM65.1037 16.996C66.0517 16.996 66.7117 18.016 66.7117 19.696C66.7117 21.4 66.0517 22.42 65.1037 22.42C64.1677 22.42 63.5077 21.4 63.5077 19.696C63.5077 18.016 64.1677 16.996 65.1037 16.996ZM82.3587 19.132C80.1867 18.808 78.5547 17.428 78.5547 16.012V15.448H77.2467V16.012C77.2467 17.452 75.6387 18.808 73.4547 19.132L73.9347 20.14C75.7347 19.84 77.2107 18.916 77.9067 17.644C78.6147 18.904 80.0787 19.84 81.8787 20.14L82.3587 19.132ZM82.8147 21.184H72.9867V22.192H75.3867V25.996H76.6227V22.192H79.2147V25.996H80.4387V22.192H82.8147V21.184Z" fill="#007AFF"/>
<defs>
<clipPath id="clip0">
<rect width="16" height="16" fill="white" transform="translate(16.5 12)"/>
</clipPath>
</defs>
</svg>
